<svg role="img" viewBox="0 0 96 96" xmlns="http://www.w3.org/2000/svg" id="Ipfs--Streamline-Simple-Icons" height="96" width="96">
  <desc>
    Ipfs Streamline Icon: https://streamlinehq.com
  </desc>
  <title>IPFS</title>
  <path d="M48 0 6.432 24v48L48 96l41.568 -24V24zm-4.292 5.78h0.004a7.2 7.2 0 0 0 8.552 0l30.136 17.4a7.176 7.176 0 0 0 0 1.612l-30.14 17.4a7.2 7.2 0 0 0 -8.548 0l-30.144 -17.4a7.18 7.18 0 0 0 0 -1.608zM85.296 29.6c0.436 0.32 0.904 0.588 1.396 0.804v34.8a7.2 7.2 0 0 0 -4.276 7.408l-30.14 17.4a7.2 7.2 0 0 0 -1.396 -0.8l-0.036 -34.612a7.2 7.2 0 0 0 4.28 -7.404zm-74.592 0.192 30.14 17.4a7.2 7.2 0 0 0 4.276 7.408v34.8c-0.496 0.216 -0.96 0.488 -1.396 0.808l-30.14 -17.4a7.2 7.2 0 0 0 -4.276 -7.408v-34.8c0.496 -0.216 0.96 -0.488 1.4 -0.808z" fill="#000000" stroke-width="4"></path>
</svg>